<?xml version="1.0" encoding="UTF-8" standalone="no"?>
<!DOCTYPE svg PUBLIC "-//W3C//DTD SVG 1.1//EN" "http://www.w3.org/Graphics/SVG/1.1/DTD/svg11.dtd">
<svg width="100%" height="100%" viewBox="0 0 209 209" version="1.1" xmlns="http://www.w3.org/2000/svg" xmlns:xlink="http://www.w3.org/1999/xlink" xml:space="preserve" xmlns:serif="http://www.serif.com/" style="fill-rule:evenodd;clip-rule:evenodd;stroke-linejoin:round;stroke-miterlimit:2;">
    <g transform="matrix(4.16667,0,0,4.16667,0,0)">
        <path d="M34,23L32,23L32,19C32,15.1 28.9,12 25,12C21.1,12 18,15.1 18,19L18,23L16,23L16,19C16,14 20,10 25,10C30,10 34,14 34,19L34,23Z" style="fill:rgb(244,244,244);fill-rule:nonzero;"/>
        <path d="M33,40L17,40C15.3,40 14,38.7 14,37L14,25C14,23.3 15.3,22 17,22L33,22C34.7,22 36,23.3 36,25L36,37C36,38.7 34.7,40 33,40ZM17,24C16.4,24 16,24.4 16,25L16,37C16,37.6 16.4,38 17,38L33,38C33.6,38 34,37.6 34,37L34,25C34,24.4 33.6,24 33,24L17,24Z" style="fill:rgb(244,244,244);fill-rule:nonzero;"/>
        <circle cx="25" cy="28" r="2" style="fill:rgb(244,244,244);"/>
        <path d="M25.5,28L24.5,28L23.5,34L26.5,34L25.5,28Z" style="fill:rgb(244,244,244);fill-rule:nonzero;"/>
    </g>
</svg>
